# Tiled2Unity generated file. Do not modify by hand.
# Wavefront file for 'Stage_01_mesh_0040.obj'

# Vertices (Count = 20)
v -5.44 -1.28 0
v -5.76 -1.28 0
v -5.76 -0.96 0
v -5.44 -0.96 0
v -5.44 -1.6 0
v -5.76 -1.6 0
v -5.76 -1.28 0
v -5.44 -1.28 0
v -5.44 -1.92 0
v -5.76 -1.92 0
v -5.76 -1.6 0
v -5.44 -1.6 0
v -5.44 -2.24 0
v -5.76 -2.24 0
v -5.76 -1.92 0
v -5.44 -1.92 0
v -5.44 -2.56 0
v -5.76 -2.56 0
v -5.76 -2.24 0
v -5.44 -2.24 0

# Texture cooridinates (Count = 12)
vt 0.7093509 0.0001220703
vt 0.7495618 0.0001220703
vt 0.7495618 0.9998779
vt 0.7093509 0.9998779
vt 0.7510703 0.0001220703
vt 0.7912812 0.0001220703
vt 0.7912812 0.9998779
vt 0.7510703 0.9998779
vt 0.7927896 0.0001220703
vt 0.8330005 0.0001220703
vt 0.8330005 0.9998779
vt 0.7927896 0.9998779

# Normal
vn 0 0 -1

# Mesh description
g Stage_01_mesh_0040

# Faces
f 1/1/1 2/2/1 3/3/1 4/4/1
f 5/5/1 6/6/1 7/7/1 8/8/1
f 9/5/1 10/6/1 11/7/1 12/8/1
f 13/5/1 14/6/1 15/7/1 16/8/1
f 17/9/1 18/10/1 19/11/1 20/12/1

