# Tiled2Unity generated file. Do not modify by hand.
# Wavefront file for 'Stage_01_mesh_0012.obj'

# Vertices (Count = 12)
v -28.48 -1.28 0
v -28.8 -1.28 0
v -28.8 -0.96 0
v -28.48 -0.96 0
v -28.48 -1.6 0
v -28.8 -1.6 0
v -28.8 -1.28 0
v -28.48 -1.28 0
v -28.48 -1.92 0
v -28.8 -1.92 0
v -28.8 -1.6 0
v -28.48 -1.6 0

# Texture cooridinates (Count = 4)
vt 0.3085333 0.0001220703
vt 0.3830555 0.0001220703
vt 0.3830555 0.9998779
vt 0.3085333 0.9998779

# Normal
vn 0 0 -1

# Mesh description
g Stage_01_mesh_0012

# Faces
f 1/1/1 2/2/1 3/3/1 4/4/1
f 5/1/1 6/2/1 7/3/1 8/4/1
f 9/1/1 10/2/1 11/3/1 12/4/1

