# Tiled2Unity generated file. Do not modify by hand.
# Wavefront file for 'Stage_01_mesh_0003.obj'

# Vertices (Count = 72)
v -17.92 -6.08 0
v -18.24 -6.08 0
v -18.24 -5.76 0
v -17.92 -5.76 0
v -17.92 -6.4 0
v -18.24 -6.4 0
v -18.24 -6.08 0
v -17.92 -6.08 0
v -17.92 -6.72 0
v -18.24 -6.72 0
v -18.24 -6.4 0
v -17.92 -6.4 0
v -17.92 -7.04 0
v -18.24 -7.04 0
v -18.24 -6.72 0
v -17.92 -6.72 0
v -17.92 -7.36 0
v -18.24 -7.36 0
v -18.24 -7.04 0
v -17.92 -7.04 0
v -17.92 -7.68 0
v -18.24 -7.68 0
v -18.24 -7.36 0
v -17.92 -7.36 0
v -17.92 -8 0
v -18.24 -8 0
v -18.24 -7.68 0
v -17.92 -7.68 0
v -17.92 -8.32 0
v -18.24 -8.32 0
v -18.24 -8 0
v -17.92 -8 0
v -17.92 -8.639999 0
v -18.24 -8.639999 0
v -18.24 -8.32 0
v -17.92 -8.32 0
v -17.92 -8.96 0
v -18.24 -8.96 0
v -18.24 -8.639999 0
v -17.92 -8.639999 0
v -17.92 -9.28 0
v -18.24 -9.28 0
v -18.24 -8.96 0
v -17.92 -8.96 0
v -17.92 -9.599999 0
v -18.24 -9.599999 0
v -18.24 -9.28 0
v -17.92 -9.28 0
v -18.24 -9.599999 0
v -18.56 -9.599999 0
v -18.56 -9.28 0
v -18.24 -9.28 0
v -17.92 -9.92 0
v -18.24 -9.92 0
v -18.24 -9.599999 0
v -17.92 -9.599999 0
v -18.24 -9.92 0
v -18.56 -9.92 0
v -18.56 -9.599999 0
v -18.24 -9.599999 0
v -17.92 -10.24 0
v -18.24 -10.24 0
v -18.24 -9.92 0
v -17.92 -9.92 0
v -17.92 -10.56 0
v -18.24 -10.56 0
v -18.24 -10.24 0
v -17.92 -10.24 0
v -17.92 -10.88 0
v -18.24 -10.88 0
v -18.24 -10.56 0
v -17.92 -10.56 0

# Texture cooridinates (Count = 8)
vt 0.0001220703 0.0001220703
vt 0.07464428 0.0001220703
vt 0.07464428 0.9998779
vt 0.0001220703 0.9998779
vt 0.1543277 0.0001220703
vt 0.2288499 0.0001220703
vt 0.2288499 0.9998779
vt 0.1543277 0.9998779

# Normal
vn 0 0 -1

# Mesh description
g Stage_01_mesh_0003

# Faces
f 1/1/1 2/2/1 3/3/1 4/4/1
f 5/1/1 6/2/1 7/3/1 8/4/1
f 9/1/1 10/2/1 11/3/1 12/4/1
f 13/1/1 14/2/1 15/3/1 16/4/1
f 17/1/1 18/2/1 19/3/1 20/4/1
f 21/1/1 22/2/1 23/3/1 24/4/1
f 25/1/1 26/2/1 27/3/1 28/4/1
f 29/1/1 30/2/1 31/3/1 32/4/1
f 33/1/1 34/2/1 35/3/1 36/4/1
f 37/1/1 38/2/1 39/3/1 40/4/1
f 41/1/1 42/2/1 43/3/1 44/4/1
f 45/1/1 46/2/1 47/3/1 48/4/1
f 49/5/1 50/6/1 51/7/1 52/8/1
f 53/1/1 54/2/1 55/3/1 56/4/1
f 57/5/1 58/6/1 59/7/1 60/8/1
f 61/1/1 62/2/1 63/3/1 64/4/1
f 65/1/1 66/2/1 67/3/1 68/4/1
f 69/1/1 70/2/1 71/3/1 72/4/1

