# Tiled2Unity generated file. Do not modify by hand.
# Wavefront file for 'Stage_01_mesh_0023.obj'

# Vertices (Count = 8)
v -13.76 -1.92 0
v -14.08 -1.92 0
v -14.08 -1.6 0
v -13.76 -1.6 0
v -13.76 -2.24 0
v -14.08 -2.24 0
v -14.08 -1.92 0
v -13.76 -1.92 0

# Texture cooridinates (Count = 8)
vt 0.5039389 0.0001220703
vt 0.7479695 0.0001220703
vt 0.7479695 0.9998779
vt 0.5039389 0.9998779
vt 0.0001220703 0.0001220703
vt 0.2441527 0.0001220703
vt 0.2441527 0.9998779
vt 0.0001220703 0.9998779

# Normal
vn 0 0 -1

# Mesh description
g Stage_01_mesh_0023

# Faces
f 1/1/1 2/2/1 3/3/1 4/4/1
f 5/5/1 6/6/1 7/7/1 8/8/1

