# Tiled2Unity generated file. Do not modify by hand.
# Wavefront file for 'Stage_01_mesh_0031.obj'

# Vertices (Count = 16)
v -13.12 -8.32 0
v -13.44 -8.32 0
v -13.44 -8 0
v -13.12 -8 0
v -13.12 -8.639999 0
v -13.44 -8.639999 0
v -13.44 -8.32 0
v -13.12 -8.32 0
v -13.12 -8.96 0
v -13.44 -8.96 0
v -13.44 -8.639999 0
v -13.12 -8.639999 0
v -13.12 -9.28 0
v -13.44 -9.28 0
v -13.44 -8.96 0
v -13.12 -8.96 0

# Texture cooridinates (Count = 4)
vt 0.3085333 0.0001220703
vt 0.3830555 0.0001220703
vt 0.3830555 0.9998779
vt 0.3085333 0.9998779

# Normal
vn 0 0 -1

# Mesh description
g Stage_01_mesh_0031

# Faces
f 1/1/1 2/2/1 3/3/1 4/4/1
f 5/1/1 6/2/1 7/3/1 8/4/1
f 9/1/1 10/2/1 11/3/1 12/4/1
f 13/1/1 14/2/1 15/3/1 16/4/1

