# Tiled2Unity generated file. Do not modify by hand.
# Wavefront file for 'Stage_01_mesh_0030.obj'

# Vertices (Count = 8)
v -13.12 -8.32 0
v -13.44 -8.32 0
v -13.44 -8 0
v -13.12 -8 0
v -13.12 -9.28 0
v -13.44 -9.28 0
v -13.44 -8.96 0
v -13.12 -8.96 0

# Texture cooridinates (Count = 8)
vt 0.07722487 0.0001220703
vt 0.1517471 0.0001220703
vt 0.1517471 0.9998779
vt 0.07722487 0.9998779
vt 0.0001220703 0.0001220703
vt 0.07464428 0.0001220703
vt 0.07464428 0.9998779
vt 0.0001220703 0.9998779

# Normal
vn 0 0 -1

# Mesh description
g Stage_01_mesh_0030

# Faces
f 1/1/1 2/2/1 3/3/1 4/4/1
f 5/5/1 6/6/1 7/7/1 8/8/1

