# Tiled2Unity generated file. Do not modify by hand.
# Wavefront file for 'Stage_01_mesh_0006.obj'

# Vertices (Count = 20)
v -18.56 -2.88 0
v -18.88 -2.88 0
v -18.88 -2.56 0
v -18.56 -2.56 0
v -18.56 -3.2 0
v -18.88 -3.2 0
v -18.88 -2.88 0
v -18.56 -2.88 0
v -18.56 -3.52 0
v -18.88 -3.52 0
v -18.88 -3.2 0
v -18.56 -3.2 0
v -18.56 -3.84 0
v -18.88 -3.84 0
v -18.88 -3.52 0
v -18.56 -3.52 0
v -18.56 -4.16 0
v -18.88 -4.16 0
v -18.88 -3.84 0
v -18.56 -3.84 0

# Texture cooridinates (Count = 4)
vt 0.6676316 0.0001220703
vt 0.7078425 0.0001220703
vt 0.7078425 0.9998779
vt 0.6676316 0.9998779

# Normal
vn 0 0 -1

# Mesh description
g Stage_01_mesh_0006

# Faces
f 1/1/1 2/2/1 3/3/1 4/4/1
f 5/1/1 6/2/1 7/3/1 8/4/1
f 9/1/1 10/2/1 11/3/1 12/4/1
f 13/1/1 14/2/1 15/3/1 16/4/1
f 17/1/1 18/2/1 19/3/1 20/4/1

