# Tiled2Unity generated file. Do not modify by hand.
# Wavefront file for 'Stage_01_mesh_0019.obj'

# Vertices (Count = 20)
v -20.8 -1.28 0
v -21.12 -1.28 0
v -21.12 -0.96 0
v -20.8 -0.96 0
v -20.8 -1.6 0
v -21.12 -1.6 0
v -21.12 -1.28 0
v -20.8 -1.28 0
v -20.8 -1.92 0
v -21.12 -1.92 0
v -21.12 -1.6 0
v -20.8 -1.6 0
v -20.8 -2.24 0
v -21.12 -2.24 0
v -21.12 -1.92 0
v -20.8 -1.92 0
v -20.8 -2.56 0
v -21.12 -2.56 0
v -21.12 -2.24 0
v -20.8 -2.24 0

# Texture cooridinates (Count = 8)
vt 0.6169445 0.0001220703
vt 0.6914667 0.0001220703
vt 0.6914667 0.9998779
vt 0.6169445 0.9998779
vt 0.7711501 0.0001220703
vt 0.8456723 0.0001220703
vt 0.8456723 0.9998779
vt 0.7711501 0.9998779

# Normal
vn 0 0 -1

# Mesh description
g Stage_01_mesh_0019

# Faces
f 1/1/1 2/2/1 3/3/1 4/4/1
f 5/5/1 6/6/1 7/7/1 8/8/1
f 9/5/1 10/6/1 11/7/1 12/8/1
f 13/5/1 14/6/1 15/7/1 16/8/1
f 17/1/1 18/2/1 19/3/1 20/4/1

